{"title":"Wild At Heart 1990 DVD9rip English Klam","uid":6206770,"size":2103181771,"categoryP":"video","categoryS":"movies","magnet":"?xt=urn:btih:a80485ee1925aced738c66be9e9b688d65e65c04&amp;dn=Wild+At+Heart+1990+DVD9rip+English+Klam&amp;tr=udp%3A%2F%2Ftracker.openbittorrent.com%3A80&amp;tr=udp%3A%2F%2Fopen.demonii.com%3A1337&amp;tr=udp%3A%2F%2Ftracker.coppersurfer.tk%3A6969&amp;tr=udp%3A%2F%2Fexodus.desync.com%3A6969","seeders":0,"leechers":1,"uploader":"Klambake","files":3,"time":1298836423,"description":"With: Nicolas Cage, Laura Dern and Willem Dafoe\n\nLula's psychopathic mother goes crazy at the thought of Lula being with Sailor, who just got free from jail. Ignoring Sailor's probation, they set out for California. However their mother hires a killer to hunt down Sailor. Unaware of this, the two enjoy their journey and themselves being together... until they witness a young woman dying after a car accident - a bad omen.\n\nGeneral:\n\nComplete name                    : Wild At Heart\\Wild At Heart.avi\nFormat                           : AVI\nFormat/Info                      : Audio Video Interleave\nFile size                        : 1.96 GiB\nDuration                         : 1h 59mn\nOverall bit rate                 : 2 338 Kbps\n\nVideo:\n\nFormat                           : MPEG-4 Visual\nFormat profile                   : Simple@L3\nFormat settings, BVOP            : No\nFormat settings, QPel            : No\nFormat settings, GMC             : No warppoints\nFormat settings, Matrix          : Default (H.263)\nCodec ID                         : XVID\nCodec ID/Hint                    : XviD\nDuration                         : 1h 59mn\nBit rate                         : 1 879 Kbps\nWidth                            : 704 pixels\nHeight                           : 396 pixels\nDisplay aspect ratio             : 16:9\nFrame rate                       : 25.000 fps\nColor space                      : YUV\nChroma subsampling               : 4:2:0\nBit depth                        : 8 bits\nScan type                        : Progressive\nBits/(Pixel*Frame)               : 0.270\nStream size                      : 1.57 GiB (80%)\nWriting library                  : XviD 1.1.2 (UTC 2006-11-01)\n\nAudio:\n\nFormat                           : AC-3\nFormat/Info                      : Audio Coding 3\nMode extension                   : CM (complete main)\nCodec ID                         : 2000\nDuration                         : 1h 59mn\nBit rate mode                    : Constant\nBit rate                         : 448 Kbps\nChannel(s)                       : 6 channels\nChannel positions                : Front: L C R, Side: L R, LFE\nSampling rate                    : 48.0 KHz\nBit depth                        : 16 bits\nStream size                      : 384 MiB (19%)\nAlignment                        : Aligned on interleaves\nInterleave, duration             : 32 ms (0.80 video frame)","torrent":{"xt":"urn:btih:a80485ee1925aced738c66be9e9b688d65e65c04","amp;dn":"Wild+At+Heart+1990+DVD9rip+English+Klam","amp;tr":["udp%3A%2F%2Ftracker.openbittorrent.com%3A80","udp%3A%2F%2Fopen.demonii.com%3A1337","udp%3A%2F%2Ftracker.coppersurfer.tk%3A6969","udp%3A%2F%2Fexodus.desync.com%3A6969"],"infoHash":"a80485ee1925aced738c66be9e9b688d65e65c04","infoHashBuffer":{"type":"Buffer","data":[168,4,133,238,25,37,172,237,115,140,102,190,158,155,104,141,101,230,92,4]},"announce":[],"urlList":[]}}